<svg width="40" height="39" viewBox="0 0 40 39" fill="none" xmlns="http://www.w3.org/2000/svg">
<path d="M19.584 0C8.81328 0 0.0839844 8.7293 0.0839844 19.5C0.0839844 30.2707 8.81328 39 19.584 39C30.3547 39 39.084 30.2707 39.084 19.5C39.084 8.7293 30.3547 0 19.584 0ZM31.7562 31.6646C30.1719 33.249 28.3361 34.4906 26.2871 35.3514C24.1695 36.2502 21.9148 36.6996 19.584 36.6996C17.2607 36.6996 15.0061 36.2426 12.8809 35.3514C10.8318 34.483 8.98848 33.2414 7.41172 31.6646C5.82734 30.0803 4.58574 28.2445 3.725 26.1955C2.82617 24.0779 2.36914 21.8232 2.36914 19.5C2.36914 17.1768 2.82617 14.9221 3.71738 12.7969C4.58574 10.7479 5.82734 8.90449 7.4041 7.32773C8.99609 5.74336 10.8318 4.50176 12.8809 3.6334C15.0061 2.74219 17.2607 2.28516 19.584 2.28516C21.9072 2.28516 24.1619 2.74219 26.2871 3.6334C28.3361 4.50176 30.1795 5.74336 31.7562 7.32012C33.3406 8.90449 34.5822 10.7402 35.443 12.7893C36.3418 14.9068 36.7912 17.1615 36.7912 19.4924C36.7912 21.8156 36.3342 24.0703 35.443 26.1955C34.5746 28.2445 33.333 30.0879 31.7562 31.6646Z" fill="white"/>
<path d="M28.8236 12.8041C28.0467 13.2611 27.1936 13.5963 26.2795 13.7791C25.5482 13.0021 24.5047 12.5146 23.3545 12.5146C21.1455 12.5146 19.3479 14.3123 19.3479 16.5213C19.3479 16.8336 19.3783 17.1383 19.4545 17.4354C16.1258 17.2678 13.1703 15.6758 11.1975 13.2459C10.8547 13.84 10.6566 14.5256 10.6566 15.2645C10.6566 16.6508 11.365 17.8772 12.4391 18.6008C11.784 18.5779 11.167 18.3951 10.6262 18.098V18.1438C10.6262 20.0861 12.0049 21.7086 13.8406 22.0742C13.5055 22.1656 13.1475 22.2189 12.7818 22.2189C12.5229 22.2189 12.2715 22.1961 12.0277 22.1504C12.5381 23.7424 14.0158 24.9002 15.7678 24.9307C14.3967 26.0047 12.6676 26.6445 10.7938 26.6445C10.4738 26.6445 10.1539 26.6293 9.83398 26.5912C11.6088 27.7262 13.7111 28.3889 15.9734 28.3889C23.3469 28.3889 27.3764 22.2799 27.3764 16.9859C27.3764 16.8107 27.3764 16.6355 27.3687 16.468C28.1533 15.8967 28.8312 15.1959 29.3645 14.3885C28.6484 14.7084 27.8715 14.9217 27.0641 15.0207C27.8943 14.5256 28.5266 13.741 28.8236 12.8041Z" fill="white"/>
</svg>
