<svg width="25" height="23" viewBox="0 0 25 23" fill="none" xmlns="http://www.w3.org/2000/svg">
<path d="M0.782076 22.5003H3.91304C4.34499 22.5003 4.69511 22.1501 4.69511 21.7182V8.03281C4.69511 7.60081 4.34499 7.25073 3.91304 7.25073H0.782076C0.350083 7.25073 0 7.60081 0 8.03281V21.7182C0 22.1501 0.350083 22.5003 0.782076 22.5003Z" fill="white"/>
<path d="M0.782076 4.84422H3.91304C4.34499 4.84422 4.69511 4.4941 4.69511 4.06215V1.28183C4.69511 0.849882 4.34499 0.499756 3.91304 0.499756H0.782076C0.350083 0.499756 0 0.849882 0 1.28183V4.06215C0 4.4941 0.350083 4.84422 0.782076 4.84422Z" fill="white"/>
<path d="M22.9058 8.83751C22.4659 8.25838 21.8171 7.78212 20.9593 7.40882C20.1015 7.03577 19.1547 6.84912 18.1187 6.84912C16.0157 6.84912 14.2337 7.65172 12.7727 9.25722C12.482 9.57667 12.2707 9.50683 12.2707 9.07484V8.03226C12.2707 7.60026 11.9205 7.25018 11.4886 7.25018H8.69174C8.25975 7.25018 7.90967 7.60026 7.90967 8.03226V21.7176C7.90967 22.1496 8.25979 22.4998 8.69174 22.4998H11.8227C12.2547 22.4998 12.6048 22.1496 12.6048 21.7176V16.9582C12.6048 14.9754 12.7245 13.6164 12.964 12.8812C13.2033 12.1461 13.6463 11.5557 14.2923 11.1102C14.9385 10.6646 15.668 10.4417 16.4813 10.4417C17.1162 10.4417 17.6593 10.5976 18.1105 10.9096C18.5616 11.2216 18.8875 11.6586 19.088 12.2213C19.2886 12.7838 19.3888 14.023 19.3888 15.9391V21.7176C19.3888 22.1495 19.7389 22.4997 20.1708 22.4997H23.3018C23.7337 22.4997 24.0838 22.1495 24.0838 21.7176V13.9673C24.0838 12.5973 23.9975 11.5445 23.825 10.8094C23.6525 10.0742 23.3461 9.41695 22.9058 8.83751Z" fill="white"/>
</svg>
