<svg width="38" height="39" viewBox="0 0 38 39" fill="none" xmlns="http://www.w3.org/2000/svg">
<path fill-rule="evenodd" clip-rule="evenodd" d="M0 8.1C0 3.90263 3.40263 0.5 7.6 0.5H30.4C34.5973 0.5 38 3.90263 38 8.1V30.9C38 35.0973 34.5973 38.5 30.4 38.5H7.6C3.40263 38.5 0 35.0973 0 30.9V8.1ZM7.6 4.3C5.50132 4.3 3.8 6.00132 3.8 8.1V30.9C3.8 32.9987 5.50132 34.7 7.6 34.7H19V21.4H17.1C16.0506 21.4 15.2 20.5494 15.2 19.5C15.2 18.4506 16.0506 17.6 17.1 17.6H19V14.75C19 11.0773 21.9773 8.1 25.65 8.1H26.79C27.8394 8.1 28.69 8.95067 28.69 10C28.69 11.0493 27.8394 11.9 26.79 11.9H25.65C24.076 11.9 22.8 13.176 22.8 14.75V17.6H26.79C27.8394 17.6 28.69 18.4506 28.69 19.5C28.69 20.5494 27.8394 21.4 26.79 21.4H22.8V34.7H30.4C32.4987 34.7 34.2 32.9987 34.2 30.9V8.1C34.2 6.00132 32.4987 4.3 30.4 4.3H7.6Z" fill="white"/>
</svg>
