<svg width="39" height="39" viewBox="0 0 39 39" fill="none" xmlns="http://www.w3.org/2000/svg">
<path d="M16.6332 4.01548L15.7307 5.11819C15.886 5.24526 16.0663 5.3381 16.26 5.39066C16.4536 5.44321 16.6561 5.45428 16.8543 5.42314L16.6332 4.01548ZM3.59923 17.0495L5.00713 17.2704C5.03823 17.0722 5.02714 16.8697 4.97459 16.6761C4.92204 16.4825 4.82921 16.3022 4.70218 16.147L3.59923 17.0495ZM21.5347 34.9845L22.437 33.8818C22.2818 33.7547 22.1015 33.6619 21.9079 33.6094C21.7143 33.5568 21.5118 33.5457 21.3136 33.5769L21.5347 34.9845ZM34.5685 21.9508L33.1608 21.7296C33.1297 21.9278 33.1408 22.1303 33.1933 22.3239C33.2459 22.5175 33.3387 22.6978 33.4658 22.853L34.5685 21.9508ZM17.5357 2.91277C15.6284 1.34956 13.2376 0.496789 10.7715 0.500009V3.35001C12.5796 3.34671 14.3327 3.97174 15.731 5.11819L17.5357 2.91277ZM10.7715 0.500009C4.8689 0.500009 0.0839937 5.28492 0.0839937 11.1875H2.93399C2.93399 6.85907 6.44305 3.35001 10.7715 3.35001V0.500009ZM0.0839937 11.1875C0.0807268 13.6536 0.933414 16.0443 2.49652 17.9517L4.70218 16.1467C3.55578 14.7486 2.93075 12.9956 2.93399 11.1875H0.0839937ZM4.83399 19.5C4.83399 18.7405 4.89313 17.9959 5.00713 17.2704L2.19181 16.8284C2.05323 17.7122 1.98375 18.6054 1.98399 19.5H4.83399ZM19.084 33.75C11.214 33.75 4.83399 27.37 4.83399 19.5H1.98399C1.98399 28.9439 9.64004 36.6 19.084 36.6V33.75ZM21.3136 33.5769C20.5881 33.6906 19.8435 33.75 19.084 33.75V36.6C19.9919 36.6 20.8845 36.529 21.7556 36.3922L21.3136 33.5769ZM20.6322 36.0875C22.5397 37.6506 24.9304 38.5033 27.3965 38.5V35.65C25.5884 35.6532 23.8353 35.0282 22.437 33.8818L20.6322 36.0875ZM27.3965 38.5C33.2991 38.5 38.084 33.7151 38.084 27.8125H35.234C35.234 32.1409 31.7249 35.65 27.3965 35.65V38.5ZM38.084 27.8125C38.0872 25.3464 37.2346 22.9557 35.6715 21.0483L33.4658 22.853C34.6122 24.2513 35.2372 26.0044 35.234 27.8125H38.084ZM33.334 19.5C33.334 20.2595 33.2746 21.0041 33.1608 21.7296L35.9762 22.1716C36.113 21.3005 36.184 20.408 36.184 19.5H33.334ZM19.084 5.25001C26.954 5.25001 33.334 11.63 33.334 19.5H36.184C36.184 10.0561 28.5279 2.40001 19.084 2.40001V5.25001ZM16.8543 5.42314C17.5919 5.30747 18.3374 5.24974 19.084 5.25001V2.40001C18.176 2.40001 17.2837 2.47102 16.4121 2.60782L16.8543 5.42314Z" fill="white"/>
</svg>
